<?xml version="1.0" encoding="UTF-8"?>
<!DOCTYPE svg PUBLIC "-//W3C//DTD SVG 1.1//EN" "http://www.w3.org/Graphics/SVG/1.1/DTD/svg11.dtd">
<!-- Creator: CorelDRAW X8 -->
<svg xmlns="http://www.w3.org/2000/svg" xml:space="preserve" width="13.7795in" height="11.6929in" version="1.1" style="shape-rendering:geometricPrecision; text-rendering:geometricPrecision; image-rendering:optimizeQuality; fill-rule:evenodd; clip-rule:evenodd"
viewBox="0 0 13780 11693"
 xmlns:xlink="http://www.w3.org/1999/xlink">
 <defs>
  <style type="text/css">
   <![CDATA[
    .fil0 {fill:#3E4095;fill-rule:nonzero}
   ]]>
  </style>
 </defs>
 <g id="Layer_x0020_1">
  <metadata id="CorelCorpID_0Corel-Layer"/>
  <g id="_2441653980304">
   <path class="fil0" d="M10313 2859l-3365 -1943c-56,-32 -135,-50 -218,-50 -83,0 -162,18 -218,50l-3348 1943c-116,67 -200,243 -200,377l0 3885c0,77 16,167 66,242l7452 -4323c-40,-76 -107,-145 -169,-181z"/>
   <path class="fil0" d="M3013 7363c38,58 85,107 134,136l3365 1942c56,32 135,51 218,51 83,0 162,-19 218,-51l3348 -1942c116,-67 200,-244 200,-378l0 -3885c0,-61 -5,-132 -39,-196l-7444 4323z"/>
  </g>
 </g>
</svg>
