<?xml version="1.0" encoding="UTF-8"?>
<!DOCTYPE svg PUBLIC "-//W3C//DTD SVG 1.1//EN" "http://www.w3.org/Graphics/SVG/1.1/DTD/svg11.dtd">
<!-- Creator: CorelDRAW X8 -->
<svg xmlns="http://www.w3.org/2000/svg" xml:space="preserve" width="0.833331in" height="0.833331in" version="1.1" style="shape-rendering:geometricPrecision; text-rendering:geometricPrecision; image-rendering:optimizeQuality; fill-rule:evenodd; clip-rule:evenodd"
viewBox="0 0 833 833"
 xmlns:xlink="http://www.w3.org/1999/xlink">
 <defs>
  <style type="text/css">
   <![CDATA[
    .fil0 {fill:#3E4095;fill-rule:nonzero}
   ]]>
  </style>
 </defs>
 <g id="Layer_x0020_1">
  <metadata id="CorelCorpID_0Corel-Layer"/>
  <path class="fil0" d="M320 575c51,0 141,-5 165,-47l-134 -193c-38,66 5,116 -78,116 202,-8 -38,61 102,-64 19,-7 -10,55 32,142l47 -109c-24,-42 5,-134 -47,-134 -76,0 -138,62 -138,138 18,119 79,397 51,151zm389 -323l2 -1c-3,-7 -9,-12 -14,-15l-272 -157c-5,-3 -11,-4 -18,-4 -7,0 -13,1 -17,4l-272 157c-9,5 -16,20 -16,31l0 314c0,6 1,13 5,19l-1 1c3,5 7,9 11,11l273 157c4,3 10,4 17,4 7,0 13,-1 18,-4l271 -157c9,-6 16,-20 16,-31l0 -314c0,-5 0,-10 -3,-15z"/>
 </g>
</svg>
